<?xml version="1.0" standalone="no"?>
<!DOCTYPE svg PUBLIC "-//W3C//DTD SVG 1.1//EN" "http://www.w3.org/Graphics/SVG/1.1/DTD/svg11.dtd" >
<svg xmlns="http://www.w3.org/2000/svg" xmlns:xlink="http://www.w3.org/1999/xlink" version="1.1">
<metadata></metadata>
<defs>
<font id="basis_grotesque_probold" horiz-adv-x="1216" >
<font-face units-per-em="2048" ascent="1638" descent="-410" />
<missing-glyph horiz-adv-x="565" />
<glyph unicode="&#xfb01;" horiz-adv-x="1212" d="M39 807v209h147v143q0 182 99.5 279.5t261.5 97.5q70 0 129 -23l-45 -227q-37 12 -72 12q-115 0 -115 -133v-149h641v-1016h-258v807h-383v-807h-258v807h-147zM815 1163v271h283v-271h-283z" />
<glyph unicode="&#xfb02;" horiz-adv-x="1214" d="M39 807v209h147v143q0 182 99.5 279.5t261.5 97.5q70 0 129 -23l-45 -227q-37 12 -72 12q-115 0 -115 -133v-149h222v-209h-222v-807h-258v807h-147zM827 0v1434h258v-1434h-258z" />
<glyph unicode="&#xfb03;" horiz-adv-x="1794" d="M39 807v209h147v143q0 182 99.5 279.5t261.5 97.5q70 0 129 -23l-45 -227q-37 12 -72 12q-115 0 -115 -133v-149h324v143q0 182 99.5 279.5t260.5 97.5q70 0 129 -23l-45 -227q-37 12 -71 12q-115 0 -115 -133v-149h641v-1016h-258v807h-383v-807h-258v807h-324v-807 h-258v807h-147zM1397 1163v271h282v-271h-282z" />
<glyph unicode="&#xfb04;" horiz-adv-x="1796" d="M39 807v209h147v143q0 182 99.5 279.5t261.5 97.5q70 0 129 -23l-45 -227q-37 12 -72 12q-115 0 -115 -133v-149h324v143q0 182 99.5 279.5t260.5 97.5q70 0 129 -23l-45 -227q-37 12 -71 12q-115 0 -115 -133v-149h221v-209h-221v-807h-258v807h-324v-807h-258v807h-147 zM1409 0v1434h258v-1434h-258z" />
<glyph horiz-adv-x="0" />
<glyph horiz-adv-x="682" />
<glyph horiz-adv-x="0" />
<glyph horiz-adv-x="0" />
<glyph unicode="&#xd;" horiz-adv-x="681" />
<glyph unicode=" "  horiz-adv-x="565" />
<glyph unicode="&#x09;" horiz-adv-x="565" />
<glyph unicode="&#xa0;" horiz-adv-x="565" />
<glyph unicode="!" horiz-adv-x="569" d="M150 0v283h270v-283h-270zM150 936v498h270v-498l-33 -510h-205z" />
<glyph unicode="&#x22;" horiz-adv-x="806" d="M104 1272v162h246v-162l-26 -342h-193zM457 1272v162h245v-162l-26 -342h-193z" />
<glyph unicode="#" horiz-adv-x="1363" d="M92 418v192h217l39 213h-215v193h250l76 418h225l-76 -418h264l78 418h226l-78 -418h182v-193h-217l-39 -213h215v-192h-250l-76 -418h-225l76 418h-264l-78 -418h-225l77 418h-182zM535 610h264l39 213h-265z" />
<glyph unicode="$" horiz-adv-x="1335" d="M90 430l238 121q49 -270 245 -328v422q-195 43 -308 149.5t-113 274.5q0 160 114.5 264.5t306.5 124.5v180h213v-188q303 -53 416 -356l-213 -123q-59 178 -203 237v-362q223 -51 332 -156.5t109 -277.5q0 -164 -119 -287t-322 -148v-182h-213v185q-203 29 -324.5 148.5 t-158.5 301.5zM410 1075q0 -111 163 -174v326q-163 -27 -163 -152zM786 219q80 18 125 66t45 116q0 125 -170 189v-371z" />
<glyph unicode="%" horiz-adv-x="1792" d="M88 1103.5q0 153.5 100.5 256t256 102.5t256 -102.5t100.5 -256t-100.5 -256t-256 -102.5t-256 102.5t-100.5 256zM276 1104q0 -80 48.5 -131t120 -51t119.5 51t48 131t-48 131t-119.5 51t-120 -51t-48.5 -131zM377 86l891 1362l147 -100l-891 -1362zM991 329.5 q0 153.5 100.5 256t256 102.5t256 -102.5t100.5 -256t-100.5 -256t-256 -102.5t-256 102.5t-100.5 256zM1180 330q0 -80 48 -131.5t119.5 -51.5t120 51.5t48.5 131.5t-48.5 131t-120 51t-119.5 -51t-48 -131z" />
<glyph unicode="&#x26;" horiz-adv-x="1357" d="M104 418q0 256 269 420q-90 147 -90 274q0 156 103 253t257 97q156 0 253 -81t97 -216q0 -223 -305 -379l262 -344q57 119 86 287l201 -115q-49 -211 -145 -358l194 -256h-295l-63 84q-152 -113 -363 -113q-203 0 -332 124t-129 323zM362 430q0 -104 69 -168.5t173 -64.5 q106 0 197 59l-309 416q-129 -100 -130 -242zM508 1120q0 -84 65 -182q113 55 158 101t45 103.5t-39 90.5t-94 33q-57 0 -96 -38t-39 -108z" />
<glyph unicode="'" horiz-adv-x="454" d="M104 1272v162h246v-162l-26 -342h-193z" />
<glyph unicode="(" horiz-adv-x="737" d="M129 565q0 475 221 869h232q-82 -150 -136.5 -402t-54.5 -467t54.5 -466.5t136.5 -401.5h-232q-221 393 -221 868z" />
<glyph unicode=")" horiz-adv-x="737" d="M156 -303q82 150 136 401.5t54 466.5t-54 467t-136 402h231q221 -393 221 -868.5t-221 -868.5h-231z" />
<glyph unicode="*" horiz-adv-x="897" d="M94 1014l217 76l-217 75l111 193l174 -150l-41 226h221l-41 -226l174 150l111 -193l-217 -75l217 -76l-111 -193l-174 150l41 -226h-221l41 226l-174 -150z" />
<glyph unicode="+" horiz-adv-x="1155" d="M82 643v209h391v391h209v-391h391v-209h-391v-391h-209v391h-391z" />
<glyph unicode="," horiz-adv-x="438" d="M82 0v274h274v-274l-200 -309l-60 22l78 287h-92z" />
<glyph unicode="-" horiz-adv-x="958" d="M82 532v209h795v-209h-795z" />
<glyph unicode="." horiz-adv-x="438" d="M82 0v274h274v-274h-274z" />
<glyph unicode="/" horiz-adv-x="1101" d="M10 -61l819 1556h263l-820 -1556h-262z" />
<glyph unicode="0" horiz-adv-x="1478" d="M92 717q0 336 181.5 540.5t466 204.5t465.5 -204.5t181 -540.5t-181 -541t-465.5 -205t-466 205t-181.5 541zM362 716.5q0 -229.5 104.5 -362.5t272.5 -133t272.5 133t104.5 362.5t-104.5 362.5t-272.5 133t-272.5 -133t-104.5 -362.5z" />
<glyph unicode="1" horiz-adv-x="806" d="M94 1004v249q121 0 196 44t122 137h254v-1434h-271v1100q-98 -96 -301 -96z" />
<glyph unicode="2" horiz-adv-x="1200" d="M96 0v193l545 534q92 90 130 153.5t38 139.5q0 92 -59.5 148.5t-160 56.5t-161.5 -54.5t-61 -148.5q0 -51 18 -98l-262 -50q-27 68 -27 162q0 174 136.5 300t357.5 126q229 0 355 -114.5t126 -296.5q0 -141 -54 -247t-196 -241l-321 -313h571v-250h-975z" />
<glyph unicode="3" horiz-adv-x="1232" d="M102 410q0 72 23 127l256 -62q-8 -25 -8 -59q0 -98 67.5 -156.5t175.5 -58.5q115 0 183.5 59t68.5 168q0 123 -99 180.5t-267 57.5v200q147 0 227 54.5t80 152.5q0 76 -54.5 122t-146.5 46q-90 0 -149.5 -45t-59.5 -121q0 -41 13 -69l-250 -56q-20 61 -21 113 q0 164 129 281.5t340 117.5q225 0 343 -97t118 -255q0 -111 -59.5 -196t-151.5 -126q123 -41 201 -132t78 -228q0 -209 -145.5 -333t-377.5 -124q-242 0 -378 127t-136 312z" />
<glyph unicode="4" horiz-adv-x="1257" d="M84 238v249l698 947h271v-947h145v-249h-145v-238h-271v238h-698zM371 487h411v566z" />
<glyph unicode="5" horiz-adv-x="1247" d="M100 381q0 55 21 113l258 -62q-8 -29 -8 -53q0 -86 66.5 -132t174.5 -46q125 0 201 76.5t76 214.5q0 129 -76 203.5t-201 74.5q-86 0 -161.5 -46t-126.5 -128l-211 55l67 783h889v-250h-700l-35 -330q57 61 145 93t174 32q242 0 374 -132t132 -355.5t-152.5 -372 t-396.5 -148.5q-233 0 -371.5 121t-138.5 289z" />
<glyph unicode="6" horiz-adv-x="1267" d="M92 633q0 266 84 471q74 172 203 265t301 93q205 0 325.5 -98t120.5 -258q1 -64 -22 -115l-250 53q14 37 14 68q0 70 -52 105.5t-136 35.5q-143 0 -229 -133t-103 -332q143 150 346 150q215 0 352.5 -134t137.5 -343t-151.5 -349.5t-381.5 -140.5q-256 0 -407.5 175.5 t-151.5 486.5zM375 454.5q0 -120.5 77.5 -191t194.5 -70.5t196 70.5t79 191t-79 191.5t-196 71t-194.5 -71t-77.5 -191.5z" />
<glyph unicode="7" horiz-adv-x="1116" d="M74 1184v250h966v-238l-536 -1196h-271l533 1184h-692z" />
<glyph unicode="8" d="M94 397q0 129 65.5 225.5t180.5 145.5q-203 102 -203 317q0 166 131 271.5t340 105.5t340 -105.5t131 -271.5q0 -215 -202 -317q115 -49 180 -145.5t65 -225.5q0 -193 -139 -309.5t-374.5 -116.5t-375 117t-139.5 309zM356 420q0 -98 72 -162.5t180.5 -64.5t180 64.5 t71.5 162.5t-71.5 162.5t-180 64.5t-180.5 -64.5t-72 -162.5zM395 1067q0 -92 62.5 -145.5t150.5 -53.5t150.5 53.5t62.5 145.5t-62.5 143.5t-150.5 51.5t-150.5 -51.5t-62.5 -143.5z" />
<glyph unicode="9" horiz-adv-x="1288" d="M102 973q0 211 149.5 350t383.5 139q270 0 414.5 -172t144.5 -489q0 -262 -86 -482q-66 -168 -196 -258t-306 -90q-213 0 -331.5 102.5t-118.5 260.5q0 57 18 108l254 -55q-14 -37 -14 -65q0 -68 57 -105t143 -37q135 0 221.5 123t102.5 342q-115 -150 -330 -149 q-223 0 -364.5 134t-141.5 343zM365 979q0 -119 81.5 -190.5t194.5 -71.5t191.5 70.5t78.5 191.5t-78.5 191.5t-191.5 70.5t-194.5 -71.5t-81.5 -190.5z" />
<glyph unicode=":" horiz-adv-x="438" d="M82 0v274h274v-274h-274zM82 717v274h274v-274h-274z" />
<glyph unicode=";" horiz-adv-x="438" d="M82 0v274h274v-274l-206 -332l-60 23l84 309h-92zM82 717v274h274v-274h-274z" />
<glyph unicode="&#x3c;" horiz-adv-x="1077" d="M82 535v200l895 439v-254l-612 -285l612 -285v-256z" />
<glyph unicode="=" horiz-adv-x="1155" d="M82 397v209h991v-209h-991zM82 807v209h991v-209h-991z" />
<glyph unicode="&#x3e;" horiz-adv-x="1077" d="M100 94v256l613 285l-613 285v254l895 -439v-200z" />
<glyph unicode="?" horiz-adv-x="1124" d="M84 1049q0 162 132 287.5t343 125.5q219 0 346 -106.5t127 -282.5q0 -123 -55 -216t-209 -224q-55 -47 -75.5 -93t-20.5 -114h-258v33q0 94 37.5 162.5t138.5 148.5q104 84 146 146.5t42 138.5q0 80 -59.5 127t-153.5 47q-98 0 -164.5 -55.5t-66.5 -147.5q0 -39 14 -76 l-235 -49q-29 61 -29 148zM408 0v283h270v-283h-270z" />
<glyph unicode="@" horiz-adv-x="1961" d="M92 551q0 383 265.5 647t670.5 264q131 0 251 -28.5t226.5 -91t185 -150.5t124 -215t45.5 -279q0 -274 -147.5 -458.5t-360.5 -184.5q-90 0 -145.5 43t-55.5 113q0 10 2 25q-47 -78 -129 -129.5t-184 -51.5q-170 0 -271.5 121t-101.5 318q0 141 47 259.5t122 194.5 t163 117t176 41q188 0 258 -133l16 100h197l-115 -741q-2 -18 -2 -33q0 -70 64 -70q94 0 171.5 126t77.5 341q0 260 -159.5 419t-468.5 159q-295 0 -500 -209t-205 -528q0 -311 182.5 -485.5t454.5 -174.5q225 0 389 113l99 -166q-213 -135 -496 -135q-168 0 -316.5 51 t-269.5 153.5t-190.5 271.5t-69.5 386zM684 481q0 -121 52 -186.5t134 -65.5q127 0 220.5 129t93.5 330q0 240 -183 240q-125 0 -221 -129t-96 -318z" />
<glyph unicode="A" horiz-adv-x="1437" d="M10 0l580 1434h258l579 -1434h-288l-144 375h-553l-143 -375h-289zM535 616h368l-131 345q-27 70 -53 155l-53 -155z" />
<glyph unicode="B" horiz-adv-x="1351" d="M150 0v1434h589q219 0 339 -92.5t120 -258.5q0 -104 -56.5 -183t-142.5 -122q258 -102 258 -348q0 -197 -146 -313.5t-361 -116.5h-600zM420 242h313q254 0 254 198.5t-254 198.5h-313v-397zM420 877h299q113 0 165 38.5t52 120.5t-52.5 121t-164.5 39h-299v-319z" />
<glyph unicode="C" horiz-adv-x="1572" d="M94 717q0 330 212 537.5t532 207.5q219 0 387 -103.5t241 -271.5l-219 -157q-133 282 -416 282h-2q-195 0 -327.5 -136t-132.5 -359q0 -217 133 -356.5t327 -139.5q281 0 435 287l211 -152q-135 -207 -278.5 -296t-369.5 -89q-319 0 -526 207t-207 539z" />
<glyph unicode="D" horiz-adv-x="1456" d="M150 0v1434h432q350 0 565 -184.5t215 -532.5t-215 -532.5t-565 -184.5h-432zM420 250h180q225 0 356 119.5t131 347t-131 347.5t-356 120h-180v-934z" />
<glyph unicode="E" horiz-adv-x="1259" d="M150 0v1434h989v-242h-719v-330h661v-241h-661v-379h725v-242h-995z" />
<glyph unicode="F" horiz-adv-x="1265" d="M150 0v1434h1013v-242h-743v-371h682v-241h-682v-580h-270z" />
<glyph unicode="G" horiz-adv-x="1597" d="M94 716.5q0 323.5 216 534.5t528 211q211 0 377.5 -95t248.5 -255l-202 -147q-135 260 -428 260q-195 0 -330 -139.5t-135 -368.5q0 -217 126 -356.5t318 -139.5q174 0 272.5 91t120.5 233h-463v221h734v-766h-179l-57 197q-143 -225 -436 -226q-303 0 -507 211 t-204 534.5z" />
<glyph unicode="H" horiz-adv-x="1466" d="M150 0v1434h270v-578h627v578h270v-1434h-270v606h-627v-606h-270z" />
<glyph unicode="I" horiz-adv-x="569" d="M150 0v1434h270v-1434h-270z" />
<glyph unicode="J" horiz-adv-x="1136" d="M86 459l270 -29q4 -209 199 -209q96 0 147.5 60.5t51.5 160.5v992h270v-996q0 -209 -124 -338t-345 -129t-345 128t-124 360z" />
<glyph unicode="K" horiz-adv-x="1347" d="M150 0v1434h270v-553l112 127l402 426h342l-508 -533l541 -901h-316l-420 700l-153 -161v-539h-270z" />
<glyph unicode="L" horiz-adv-x="1222" d="M150 0v1434h270v-1184h719v-250h-989z" />
<glyph unicode="M" horiz-adv-x="1781" d="M150 0v1434h284l457 -1139l457 1139h284v-1434h-262v877l-70 -220l-280 -657h-258l-281 657q-57 182 -69 220v-877h-262z" />
<glyph unicode="N" horiz-adv-x="1495" d="M150 0v1434h274l598 -912q49 -82 61 -112v1024h263v-1434h-275l-598 918q-49 82 -61 112v-1030h-262z" />
<glyph unicode="O" horiz-adv-x="1662" d="M94 716.5q0 321.5 210 533.5t527.5 212t527.5 -212t210 -533.5t-210 -533.5t-527.5 -212t-527.5 212t-210 533.5zM369 716.5q0 -227.5 131 -361.5t331.5 -134t331.5 134t131 361.5t-131 361.5t-331.5 134t-331.5 -134t-131 -361.5z" />
<glyph unicode="P" horiz-adv-x="1429" d="M150 0v1434h651q248 0 392 -122t144 -345.5t-144 -345t-392 -121.5h-381v-500h-270zM420 741h373q137 0 205.5 60.5t68.5 165t-68.5 165t-205.5 60.5h-373v-451z" />
<glyph unicode="Q" horiz-adv-x="1662" d="M94 716.5q0 321.5 210 533.5t527.5 212t527.5 -211.5t210 -533.5q0 -238 -121 -422t-326 -268q45 -76 176 -195l-194 -174q-141 141 -242 313h-31q-317 0 -527 212t-210 533.5zM369 716.5q0 -227.5 131 -361.5t331.5 -134t331.5 134t131 361.5t-131 361.5t-331.5 134 t-331.5 -134t-131 -361.5z" />
<glyph unicode="R" horiz-adv-x="1366" d="M150 0v1434h612q236 0 373 -110t137 -296q0 -305 -328 -422l346 -606h-309l-332 582h-229v-582h-270zM420 819h342q240 0 240 188q0 189 -240 189h-342v-377z" />
<glyph unicode="S" horiz-adv-x="1335" d="M90 430l238 121q63 -342 362 -342q121 0 193.5 53t72.5 139q0 94 -85 147.5t-269 90.5q-207 41 -327.5 148.5t-120.5 281.5q0 178 139 285.5t364 107.5q410 0 545 -368l-213 -123q-86 254 -338 254q-102 0 -170.5 -38t-68.5 -112q0 -82 81.5 -134t264.5 -89 q238 -49 353.5 -155.5t115.5 -284.5q0 -182 -146.5 -311.5t-388.5 -129.5q-256 0 -407.5 125t-194.5 334z" />
<glyph unicode="T" horiz-adv-x="1212" d="M33 1184v250h1147v-250h-439v-1184h-270v1184h-438z" />
<glyph unicode="U" horiz-adv-x="1433" d="M129 543v891h270v-865q0 -166 85 -257t232.5 -91t232.5 91t85 257v865h271v-891q0 -268 -164 -420t-424 -152t-424 151.5t-164 420.5z" />
<glyph unicode="V" horiz-adv-x="1347" d="M4 1434h293l324 -916q31 -106 53 -182l53 182l324 916h292l-532 -1434h-274z" />
<glyph unicode="W" horiz-adv-x="1929" d="M10 1434h285l227 -906q25 -104 35 -155l35 157l233 904h279l233 -904q25 -106 35 -157l35 155l227 906h285l-395 -1434h-291l-268 1040l-269 -1040h-290z" />
<glyph unicode="X" horiz-adv-x="1263" d="M6 0l479 770l-415 664h288l273 -455l287 455h274l-410 -654l473 -780h-288l-336 553l-334 -553h-291z" />
<glyph unicode="Y" horiz-adv-x="1232" d="M8 1434h297l266 -510q27 -55 45 -105l46 105l266 510h297l-473 -873v-561h-271v561z" />
<glyph unicode="Z" horiz-adv-x="1257" d="M72 0v246l753 938h-727v250h1049v-250l-750 -934h785v-250h-1110z" />
<glyph unicode="[" horiz-adv-x="710" d="M150 -307v1741h468v-242h-210v-1258h210v-241h-468z" />
<glyph unicode="\" horiz-adv-x="1101" d="M10 1495h262l820 -1556h-263z" />
<glyph unicode="]" horiz-adv-x="710" d="M92 -66h211v1258h-211v242h469v-1741h-469v241z" />
<glyph unicode="^" horiz-adv-x="1019" d="M37 881l360 553h226l360 -553h-246l-227 352l-227 -352h-246z" />
<glyph unicode="_" horiz-adv-x="1048" d="M14 -14h1020v-209h-1020v209z" />
<glyph unicode="`" horiz-adv-x="665" d="M106 1450h314l139 -324h-199z" />
<glyph unicode="a" horiz-adv-x="1161" d="M88 289q0 145 101.5 228t261.5 108l305 47v39q0 153 -185 153h-2q-86 0 -134 -32.5t-48 -81.5q0 -12 4 -25l-231 -78q-18 41 -19 86q0 125 117 218t311 93q217 0 331 -92t114 -276v-424q-1 -154 67 -252h-262q-49 61 -49 162q-106 -190 -340 -191q-152 0 -247 87t-95 231 zM340 303q0 -59 41 -91t111 -32q117 0 190.5 77t73.5 218v19l-246 -41q-170 -29 -170 -150z" />
<glyph unicode="b" horiz-adv-x="1277" d="M129 0v1434h258v-543q120 153 331 153h3q211 0 348 -144t137 -392q0 -246 -141 -391.5t-348 -145.5q-217 0 -330 154v-125h-258zM371 508q0 -129 80.5 -212t205.5 -83t206 83t81 212t-81 212t-206 83t-205.5 -83t-80.5 -212z" />
<glyph unicode="c" horiz-adv-x="1146" d="M72 508q0 238 155.5 387t378.5 149q168 0 290 -72.5t175 -203.5l-211 -139q-80 174 -256 174q-117 0 -193.5 -81t-76.5 -214q0 -135 75.5 -215t194.5 -80q98 0 160.5 46t107.5 140l209 -135q-147 -293 -475 -293q-229 0 -381.5 148.5t-152.5 388.5z" />
<glyph unicode="d" horiz-adv-x="1277" d="M72 508q0 242 150.5 389t348.5 147q225 0 320 -153v543h258v-1434h-258v143q-43 -76 -126 -124t-194 -48q-215 0 -357 145.5t-142 391.5zM334 508q0 -129 82 -212t204.5 -83t204.5 83t82 212t-82 212t-204.5 83t-204.5 -83t-82 -212z" />
<glyph unicode="e" horiz-adv-x="1177" d="M72 508q0 238 154.5 387t379.5 149q217 0 356.5 -142t139.5 -365v-91h-783q12 -117 88 -185t191 -68q188 0 281 186l192 -111q-143 -297 -477 -297q-217 0 -369.5 150.5t-152.5 386.5zM319 635h545q-18 100 -87.5 156.5t-178.5 56.5q-100 0 -175 -60.5t-104 -152.5z" />
<glyph unicode="f" horiz-adv-x="700" d="M39 807v209h147v143q0 182 99.5 279.5t261.5 97.5q70 0 129 -23l-45 -227q-37 12 -72 12q-115 0 -115 -133v-149h222v-209h-222v-807h-258v807h-147z" />
<glyph unicode="g" horiz-adv-x="1222" d="M72 530.5q0 223.5 145 368.5t346 145q193 0 287 -139v111h258v-946q0 -252 -137 -384t-371 -132q-227 0 -357 93t-130 259q0 63 28 112l246 -75q-12 -35 -12 -70q0 -51 59.5 -83t165.5 -32q250 0 250 279v131q-92 -152 -289 -152q-205 0 -347 145.5t-142 369zM322 530.5 q0 -135.5 77.5 -212t190.5 -76.5q115 0 194.5 77.5t79.5 211t-79.5 211t-194.5 77.5q-113 0 -190.5 -76.5t-77.5 -212z" />
<glyph unicode="h" horiz-adv-x="1228" d="M129 0v1434h258v-578q121 188 352 188q166 0 263.5 -97t97.5 -261v-686h-258v586q0 102 -52.5 159.5t-152.5 57.5q-109 0 -179.5 -80t-70.5 -207v-516h-258z" />
<glyph unicode="i" horiz-adv-x="512" d="M115 1163v271h282v-271h-282zM127 0v1016h258v-1016h-258z" />
<glyph unicode="j" horiz-adv-x="512" d="M-100 -412l32 234q39 -16 80 -17q61 0 88 36t27 110v1065h258v-1094q0 -172 -83 -263t-249 -91q-79 0 -153 20zM115 1163v271h282v-271h-282z" />
<glyph unicode="k" horiz-adv-x="1107" d="M129 0v1434h258v-725l309 307h320l-371 -363l420 -653h-297l-303 475l-78 -76v-399h-258z" />
<glyph unicode="l" horiz-adv-x="516" d="M129 0v1434h258v-1434h-258z" />
<glyph unicode="m" horiz-adv-x="1744" d="M129 0v1016h258v-135q105 163 293 163h2q213 0 283 -174q109 174 323 174q156 0 242 -89.5t86 -243.5v-711h-258v629q0 190 -160 190q-88 0 -142.5 -65.5t-54.5 -188.5v-565h-258v625q0 194 -161 194h-2q-80 0 -136.5 -66.5t-56.5 -183.5v-569h-258z" />
<glyph unicode="n" d="M129 0v1016h258v-164q124 192 342 192h2q162 0 259 -96t97 -256v-692h-258v586q0 217 -206 217q-102 0 -169 -80t-67 -207v-516h-258z" />
<glyph unicode="o" horiz-adv-x="1253" d="M72 508q0 252 164.5 394t390 142t390.5 -142t165 -394t-165 -394.5t-390.5 -142.5t-390 142.5t-164.5 394.5zM334 508q0 -133 87 -214t205.5 -81t206 81t87.5 214t-87.5 214t-206 81t-205.5 -81t-87 -214z" />
<glyph unicode="p" horiz-adv-x="1277" d="M129 -418v1434h258v-146q53 78 147.5 126t204.5 48q199 0 333 -145t134 -391q0 -240 -141 -388.5t-348 -148.5t-330 154v-543h-258zM371 508q0 -125 82 -210t204.5 -85t204.5 85t82 210t-82 210t-204.5 85t-204.5 -85t-82 -210z" />
<glyph unicode="q" horiz-adv-x="1277" d="M72 508q0 242 147.5 389t343.5 147q115 0 201 -46t127 -128v146h258v-1434h-258v553q-102 -164 -328 -164q-201 0 -346 149.5t-145 387.5zM334 508q0 -125 82 -210t204.5 -85t204.5 85t82 210t-82 210t-204.5 85t-204.5 -85t-82 -210z" />
<glyph unicode="r" horiz-adv-x="786" d="M129 0v1016h258v-162q94 190 283 190q47 0 88 -12l-41 -244q-39 14 -84 15q-113 0 -179.5 -85t-66.5 -216v-502h-258z" />
<glyph unicode="s" horiz-adv-x="1024" d="M82 276l207 132q35 -100 101.5 -160t160.5 -60q63 0 111.5 30t48.5 83q0 49 -51.5 79t-165.5 52q-354 70 -355 318q0 137 110.5 215.5t268.5 78.5q162 0 259 -61t161 -195l-186 -110q-70 178 -230 178q-153 0 -153 -90q0 -94 239 -143q178 -37 259 -112t81 -202 q0 -147 -108.5 -242.5t-292.5 -95.5q-176 0 -292 86t-173 219z" />
<glyph unicode="t" horiz-adv-x="765" d="M49 807v209h158v274h258v-274h221v-209h-221v-463q0 -143 129 -143q45 0 86 12l25 -213q-78 -29 -173 -29q-326 0 -325 324v512h-158z" />
<glyph unicode="u" d="M129 385v631h258v-572q0 -231 207 -231q106 0 170.5 78t64.5 201v524h258v-1016h-258v160q-102 -188 -323 -189q-166 0 -271.5 108.5t-105.5 305.5z" />
<glyph unicode="v" horiz-adv-x="1093" d="M14 1016h275l258 -688l258 688h274l-411 -1016h-242z" />
<glyph unicode="w" horiz-adv-x="1462" d="M12 1016h250l164 -680l182 680h246l182 -680l164 680h250l-283 -1016h-249l-187 698l-186 -698h-250z" />
<glyph unicode="x" horiz-adv-x="1017" d="M-2 0l371 537l-328 479h295l170 -273l172 273h299l-318 -473l357 -543h-301l-209 334l-211 -334h-297z" />
<glyph unicode="y" horiz-adv-x="1118" d="M10 1016h293l262 -660l250 660h293l-483 -1200q-53 -131 -134 -189.5t-202 -58.5h-7q-80 0 -135 22l41 240q45 -25 93 -25q80 0 114 97l33 90z" />
<glyph unicode="z" horiz-adv-x="1015" d="M74 0v209l534 598h-512v209h811v-209l-536 -598h571v-209h-868z" />
<glyph unicode="{" horiz-adv-x="808" d="M98 459v209q78 0 116 34.5t38 126.5v222q0 203 92 293t274 90h99v-242h-51q-156 0 -156 -178v-219q0 -100 -35 -151.5t-106 -80.5q72 -29 106.5 -80t34.5 -151v-219q0 -178 156 -179h51v-241h-99q-182 0 -274 90t-92 293v221q0 92 -38 127t-116 35z" />
<glyph unicode="|" horiz-adv-x="548" d="M150 -225v1741h249v-1741h-249z" />
<glyph unicode="}" horiz-adv-x="808" d="M92 -66h51q156 0 156 179v219q0 100 35 151.5t106 79.5q-72 29 -106.5 80t-34.5 152v219q0 178 -156 178h-51v242h98q182 0 274.5 -90.5t92.5 -292.5v-222q0 -92 38 -126.5t116 -34.5v-209q-78 0 -116 -35t-38 -127v-221q0 -203 -92 -293t-275 -90h-98v241z" />
<glyph unicode="~" horiz-adv-x="944" d="M82 627q0 98 61.5 155.5t155.5 57.5q84 0 144.5 -33t98.5 -64.5t68 -31.5q55 0 56 51q0 23 -15 47l180 33q31 -47 31 -113q0 -96 -61.5 -152.5t-155.5 -56.5q-84 0 -144.5 33t-98 64.5t-68.5 31.5q-55 0 -55 -51q0 -23 14 -47l-180 -33q-31 47 -31 109z" />
<glyph unicode="&#xa1;" horiz-adv-x="569" d="M150 80l32 510h205l33 -510v-498h-270v498zM150 733v283h270v-283h-270z" />
<glyph unicode="&#xa2;" horiz-adv-x="1165" d="M84 508q0 205 121 347t305 177v238h205v-234q272 -39 368 -268l-211 -139q-57 121 -157 157v-559q100 35 170 172l209 -135q-123 -248 -379 -284v-205h-205v207q-190 35 -308 176t-118 350zM346 508q0 -209 164 -277v551q-76 -31 -120 -103.5t-44 -170.5z" />
<glyph unicode="&#xa3;" horiz-adv-x="1177" d="M57 612v201h129q-31 131 -30 213q0 201 136 318.5t351 117.5q217 0 337 -107.5t120 -267.5q0 -76 -31 -145l-238 41q18 49 19 98q0 72 -56.5 118t-156.5 46t-161.5 -57.5t-61.5 -165.5q0 -86 30 -209h387v-201h-346q6 -49 7 -104q0 -156 -82 -283h675v-225h-962v193 q70 74 97.5 139t27.5 166q0 55 -12 114h-179z" />
<glyph unicode="&#xa4;" horiz-adv-x="1335" d="M119 315l160 158q-66 109 -66 244t66 244l-160 157l147 148l160 -160q111 68 242 68t241 -68l160 160l148 -148l-160 -157q65 -109 65 -244t-65 -244l160 -158l-148 -147l-160 160q-111 -68 -241.5 -68t-241.5 68l-160 -160zM422 716.5q0 -114.5 68.5 -186t177 -71.5 t177 71.5t68.5 186t-68.5 186.5t-177 72t-177 -72t-68.5 -186.5z" />
<glyph unicode="&#xa5;" horiz-adv-x="1241" d="M29 1434h290l252 -510q31 -61 50 -111l49 111l252 510h290l-348 -664h191v-209h-299v-123h299v-209h-299v-229h-271v229h-299v209h299v123h-299v209h191z" />
<glyph unicode="&#xa6;" horiz-adv-x="548" d="M150 -225v725h249v-725h-249zM150 791v725h249v-725h-249z" />
<glyph unicode="&#xa7;" horiz-adv-x="1075" d="M96 94l174 127q90 -215 279 -215q82 0 134 39t52 107q0 143 -278 200q-162 33 -252 119t-90 215q0 117 94 201q-86 86 -86 225q0 160 116.5 255t288.5 95q160 0 275 -76.5t176 -207.5l-174 -127q-88 215 -279 215q-82 0 -134 -39t-52 -107q0 -141 278 -200 q180 -39 261.5 -112t81.5 -204q0 -129 -93 -215q84 -86 84 -229q0 -160 -116.5 -255t-288.5 -95q-319 0 -451 284zM319 705q0 -59 60 -102.5t201 -78.5q76 -18 135 -43q41 37 41 86q0 59 -59.5 102.5t-200.5 78.5q-74 18 -136 43q-41 -37 -41 -86z" />
<glyph unicode="&#xa8;" horiz-adv-x="847" d="M119 1180v254h241v-254h-241zM487 1180v254h242v-254h-242z" />
<glyph unicode="&#xa9;" horiz-adv-x="1695" d="M102 717q0 309 219.5 527t526.5 218t526 -218t219 -527t-219 -527.5t-526 -218.5t-526.5 218.5t-219.5 527.5zM283 716.5q0 -237.5 164.5 -403.5t400 -166t400.5 166t165 403.5t-165 403.5t-400.5 166t-400 -166t-164.5 -403.5zM434 717q0 184 122 301t296 117 q131 0 225 -56.5t135 -158.5l-163 -109q-61 135 -199 135q-90 0 -150.5 -62.5t-60.5 -167t59.5 -167t151.5 -62.5q137 1 209 146l162 -107q-113 -227 -369 -227q-180 0 -299 115.5t-119 302.5z" />
<glyph unicode="&#xaa;" horiz-adv-x="811" d="M84 821q0 102 79 161.5t199 78.5l189 31v18q0 106 -131 107q-61 0 -97 -21.5t-36 -54.5q0 -10 2 -19l-164 -59q-12 27 -12 59q0 88 81.5 156t225.5 68q309 0 309 -256v-295q0 -115 45 -181h-184q-31 37 -31 113q-80 -127 -235 -127q-104 0 -172 61.5t-68 159.5zM260 836 q0 -41 30 -64.5t79 -23.5q82 0 132 53t50 143v19l-172 -27q-119 -18 -119 -100z" />
<glyph unicode="&#xab;" d="M82 563l342 436h289l-340 -436l340 -436h-289zM524 563l342 436h289l-340 -436l340 -436h-289z" />
<glyph unicode="&#xac;" horiz-adv-x="1124" d="M82 643v209h913v-496h-241v287h-672z" />
<glyph unicode="&#xad;" horiz-adv-x="958" d="M82 532v209h795v-209h-795z" />
<glyph unicode="&#xae;" horiz-adv-x="1695" d="M102 717q0 309 219.5 527t526.5 218t526 -218t219 -527t-219 -527.5t-526 -218.5t-526.5 218.5t-219.5 527.5zM283 716.5q0 -237.5 164.5 -403.5t400 -166t400.5 166t165 403.5t-165 403.5t-400.5 166t-400 -166t-164.5 -403.5zM547 309v815h334q145 0 220 -68.5 t75 -183.5q0 -90 -55.5 -155.5t-147.5 -87.5l194 -320h-198l-187 314h-55v-314h-180zM727 770h147q127 0 127 102q0 100 -127 101h-147v-203z" />
<glyph unicode="&#xaf;" horiz-adv-x="671" d="M82 1204v193h508v-193h-508z" />
<glyph unicode="&#xb0;" horiz-adv-x="724" d="M76 1177.5q0 118.5 82 201.5t204.5 83t204.5 -83t82 -201.5t-82 -201.5t-204.5 -83t-204.5 83t-82 201.5zM240 1177.5q0 -55.5 33.5 -90t89 -34.5t89 34.5t33.5 90t-33.5 90.5t-89 35t-89 -35t-33.5 -90.5z" />
<glyph unicode="&#xb1;" horiz-adv-x="1177" d="M92 0v209h991v-209h-991zM92 766v209h391v391h209v-391h391v-209h-391v-391h-209v391h-391z" />
<glyph unicode="&#xb2;" horiz-adv-x="694" d="M104 1227q0 88 72 154.5t186 66.5q119 0 187.5 -56.5t68.5 -154.5q0 -74 -27.5 -127t-96.5 -123l-134 -129h265v-141h-516v108l270 260q72 66 72 134q0 84 -89 84q-41 0 -68.5 -23t-27.5 -63q0 -20 8 -50l-155 -22q-14 35 -15 82z" />
<glyph unicode="&#xb3;" horiz-adv-x="710" d="M88 918q0 44 14 73l162 -35q-4 -12 -4 -30q0 -41 28.5 -61.5t69.5 -20.5q45 0 75 23.5t30 66.5q0 100 -168 100v123q66 0 103.5 22.5t37.5 61.5q0 72 -84 72q-37 0 -63.5 -17.5t-26.5 -50.5q0 -23 6 -35l-149 -20q-10 25 -10 55q0 82 65.5 142.5t177.5 60.5 q121 0 183.5 -48t62.5 -130q0 -90 -92 -154q129 -49 129 -186q0 -104 -77 -166t-204 -62q-121 0 -193.5 60.5t-72.5 155.5z" />
<glyph unicode="&#xb4;" horiz-adv-x="665" d="M106 1126l140 324h313l-254 -324h-199z" />
<glyph unicode="&#xb5;" d="M129 -418v1434h258v-572q0 -231 207 -231q106 0 170.5 78t64.5 201v524h258v-1016h-258v160q-102 -188 -323 -189q-68 0 -125 19q6 -117 6 -140v-268h-258z" />
<glyph unicode="&#xb6;" horiz-adv-x="1341" d="M76 1036.5q0 180.5 126 289t318 108.5h758v-209h-133v-1471h-230v1471h-147v-1471h-229v885h-19q-193 0 -318.5 108.5t-125.5 289z" />
<glyph unicode="&#xb7;" horiz-adv-x="438" d="M82 594v274h274v-274h-274z" />
<glyph unicode="&#xb8;" horiz-adv-x="604" d="M109 -293l135 35q8 -45 57 -45q51 0 51 51q0 59 -57 59q-49 1 -92 -36l-76 67l68 195h143l-84 -142q33 18 82 19q70 0 115 -45t45 -115q0 -78 -56.5 -123t-138.5 -45q-160 0 -192 125z" />
<glyph unicode="&#xb9;" horiz-adv-x="520" d="M78 1188v158q117 0 160 88h163v-717h-172v520q-42 -49 -151 -49z" />
<glyph unicode="&#xba;" horiz-adv-x="937" d="M84 973q0 176 113.5 274.5t271.5 98.5q156 0 270.5 -98.5t114.5 -274.5t-114.5 -274.5t-270.5 -98.5q-158 0 -271.5 98.5t-113.5 274.5zM276 973q0 -88 54.5 -141.5t138.5 -53.5q82 0 136 53.5t54 141.5t-53 141t-137 53t-138.5 -53t-54.5 -141z" />
<glyph unicode="&#xbb;" d="M61 127l340 436l-340 436h289l342 -436l-342 -436h-289zM504 127l340 436l-340 436h289l342 -436l-342 -436h-289z" />
<glyph unicode="&#xbc;" horiz-adv-x="1486" d="M78 1188v158q117 0 160 88h163v-717h-172v520q-42 -49 -151 -49zM225 86l891 1362l148 -100l-891 -1362zM809 119v135l332 463h172v-463h73v-135h-73v-119h-172v119h-332zM971 254h170v238z" />
<glyph unicode="&#xbd;" horiz-adv-x="1542" d="M78 1188v158q117 0 160 88h163v-717h-172v520q-42 -49 -151 -49zM225 86l891 1362l148 -100l-891 -1362zM928 510q0 88 71.5 154.5t186.5 66.5q119 0 187.5 -56.5t68.5 -154.5q0 -74 -28 -127t-97 -123l-133 -129h264v-141h-516v109l270 260q72 66 72 133q0 84 -88 84 q-41 0 -68.5 -22.5t-27.5 -63.5q0 -20 8 -49l-156 -23q-14 35 -14 82z" />
<glyph unicode="&#xbe;" horiz-adv-x="1628" d="M88 918q0 44 14 73l162 -35q-4 -12 -4 -30q0 -41 28.5 -61.5t69.5 -20.5q45 0 75 23.5t30 66.5q0 100 -168 100v123q66 0 103.5 22.5t37.5 61.5q0 72 -84 72q-37 0 -63.5 -17.5t-26.5 -50.5q0 -23 6 -35l-149 -20q-10 25 -10 55q0 82 65.5 142.5t177.5 60.5 q121 0 183.5 -48t62.5 -130q0 -90 -92 -154q129 -49 129 -186q0 -104 -77 -166t-204 -62q-121 0 -193.5 60.5t-72.5 155.5zM346 86l891 1362l147 -100l-890 -1362zM950 119v135l332 463h172v-463h74v-135h-74v-119h-172v119h-332zM1112 254h170v238z" />
<glyph unicode="&#xbf;" horiz-adv-x="1124" d="M92 -57q0 123 55.5 216t208.5 224q55 47 76 93t21 114h258v-33q0 -94 -38 -162.5t-138 -148.5q-104 -84 -146.5 -146.5t-42.5 -138.5q0 -80 59.5 -127t153.5 -47q98 0 165 55.5t67 147.5q0 41 -15 76l236 49q29 -61 28 -148q0 -162 -132 -287.5t-343 -125.5 q-219 0 -346 106.5t-127 282.5zM446 733v283h271v-283h-271z" />
<glyph unicode="&#xc0;" horiz-adv-x="1437" d="M10 0l580 1434h258l579 -1434h-288l-144 375h-553l-143 -375h-289zM360 1868h314l139 -324h-199zM535 616h368l-131 345q-27 70 -53 155l-53 -155z" />
<glyph unicode="&#xc1;" horiz-adv-x="1437" d="M10 0l580 1434h258l579 -1434h-288l-144 375h-553l-143 -375h-289zM535 616h368l-131 345q-27 70 -53 155l-53 -155zM627 1544l139 324h313l-254 -324h-198z" />
<glyph unicode="&#xc2;" horiz-adv-x="1437" d="M10 0l580 1434h258l579 -1434h-288l-144 375h-553l-143 -375h-289zM395 1544l232 322h184l231 -322h-202l-121 123l-121 -123h-203zM535 616h368l-131 345q-27 70 -53 155l-53 -155z" />
<glyph unicode="&#xc3;" horiz-adv-x="1437" d="M10 0l580 1434h258l579 -1434h-288l-144 375h-553l-143 -375h-289zM356 1659q0 88 61.5 137t139.5 49q66 0 116 -21.5t76.5 -46t57.5 -46t61 -21.5q20 0 33.5 12.5t13.5 32.5q0 25 -14 53l152 31q29 -43 28 -108q0 -88 -61.5 -137.5t-138.5 -49.5q-63 0 -114.5 21.5 t-78 46t-58.5 46t-61 21.5q-20 0 -33.5 -12t-13.5 -33q0 -25 15 -53l-152 -31q-29 43 -29 109zM535 616h368l-131 345q-27 70 -53 155l-53 -155z" />
<glyph unicode="&#xc4;" horiz-adv-x="1437" d="M10 0l580 1434h258l579 -1434h-288l-144 375h-553l-143 -375h-289zM414 1597v254h241v-254h-241zM535 616h368l-131 345q-27 70 -53 155l-53 -155zM782 1597v254h242v-254h-242z" />
<glyph unicode="&#xc5;" horiz-adv-x="1437" d="M10 0l580 1434h258l579 -1434h-288l-144 375h-553l-143 -375h-289zM522 1718q0 82 57.5 138.5t139.5 56.5t139 -56.5t57 -138.5t-57 -138t-139 -56t-139.5 56t-57.5 138zM535 616h368l-131 345q-27 70 -53 155l-53 -155zM651 1718.5q0 -32.5 18.5 -51t49.5 -18.5t49 18.5 t18 51t-18 51t-49 18.5t-49.5 -18.5t-18.5 -51z" />
<glyph unicode="&#xc6;" horiz-adv-x="2017" d="M10 0l656 1434h1230v-242h-718v-330h661v-241h-661v-379h725v-242h-996v375h-448l-166 -375h-283zM565 616h342v576h-86z" />
<glyph unicode="&#xc7;" horiz-adv-x="1572" d="M94 717q0 330 212 537.5t532 207.5q219 0 387 -103.5t241 -271.5l-219 -157q-133 283 -418 282q-195 0 -327.5 -136t-132.5 -359q0 -217 133 -356.5t327 -139.5q281 0 435 287l211 -152q-135 -207 -278.5 -296t-369.5 -89l-49 -84q33 18 82 19q70 0 115 -45t45 -115 q0 -78 -56.5 -123t-138.5 -45q-160 0 -192 125l135 35q8 -45 57 -45q51 0 52 51q0 59 -58 59q-49 1 -92 -36l-76 67l51 148q-272 39 -440 238.5t-168 496.5z" />
<glyph unicode="&#xc8;" horiz-adv-x="1259" d="M150 0v1434h989v-242h-719v-330h661v-241h-661v-379h725v-242h-995zM369 1868h313l139 -324h-198z" />
<glyph unicode="&#xc9;" horiz-adv-x="1259" d="M150 0v1434h989v-242h-719v-330h661v-241h-661v-379h725v-242h-995zM489 1544l140 324h313l-254 -324h-199z" />
<glyph unicode="&#xca;" horiz-adv-x="1259" d="M150 0v1434h989v-242h-719v-330h661v-241h-661v-379h725v-242h-995zM330 1544l231 322h184l232 -322h-203l-121 123l-121 -123h-202z" />
<glyph unicode="&#xcb;" horiz-adv-x="1259" d="M150 0v1434h989v-242h-719v-330h661v-241h-661v-379h725v-242h-995zM348 1597v254h242v-254h-242zM717 1597v254h241v-254h-241z" />
<glyph unicode="&#xcc;" horiz-adv-x="569" d="M-33 1868h314l139 -324h-199zM150 0v1434h270v-1434h-270z" />
<glyph unicode="&#xcd;" horiz-adv-x="569" d="M150 0v1434h270v-1434h-270zM150 1544l139 324h313l-254 -324h-198z" />
<glyph unicode="&#xce;" horiz-adv-x="569" d="M-39 1544l232 322h184l231 -322h-202l-121 123l-121 -123h-203zM150 0v1434h270v-1434h-270z" />
<glyph unicode="&#xcf;" horiz-adv-x="569" d="M-20 1597v254h241v-254h-241zM150 0v1434h270v-1434h-270zM348 1597v254h242v-254h-242z" />
<glyph unicode="&#xd0;" horiz-adv-x="1533" d="M68 604v225h159v605h432q350 0 565.5 -184.5t215.5 -532.5t-215 -532.5t-566 -184.5h-432v604h-159zM498 250h180q225 0 356 119.5t131 347t-131 347.5t-356 120h-180v-355h317v-225h-317v-354z" />
<glyph unicode="&#xd1;" horiz-adv-x="1495" d="M150 0v1434h274l598 -912q49 -82 61 -112v1024h263v-1434h-275l-598 918q-49 82 -61 112v-1030h-262zM385 1659q0 88 61.5 137t139.5 49q66 0 116 -21.5t76.5 -46t58 -46t60.5 -21.5q20 0 33.5 12.5t13.5 32.5q0 25 -14 53l151 31q29 -43 29 -108q0 -88 -61.5 -137.5 t-139.5 -49.5q-66 0 -116 21.5t-76.5 46t-58 46t-60.5 21.5q-20 0 -33.5 -12t-13.5 -33q0 -25 14 -53l-151 -31q-29 43 -29 109z" />
<glyph unicode="&#xd2;" horiz-adv-x="1662" d="M94 716.5q0 321.5 210 533.5t527.5 212t527.5 -212t210 -533.5t-210 -533.5t-527.5 -212t-527.5 212t-210 533.5zM369 716.5q0 -227.5 131 -361.5t331.5 -134t331.5 134t131 361.5t-131 361.5t-331.5 134t-331.5 -134t-131 -361.5zM545 1868h313l139 -324h-198z" />
<glyph unicode="&#xd3;" horiz-adv-x="1662" d="M94 716.5q0 321.5 210 533.5t527.5 212t527.5 -212t210 -533.5t-210 -533.5t-527.5 -212t-527.5 212t-210 533.5zM369 716.5q0 -227.5 131 -361.5t331.5 -134t331.5 134t131 361.5t-131 361.5t-331.5 134t-331.5 -134t-131 -361.5zM668 1544l139 324h313l-254 -324h-198z " />
<glyph unicode="&#xd4;" horiz-adv-x="1662" d="M94 716.5q0 321.5 210 533.5t527.5 212t527.5 -212t210 -533.5t-210 -533.5t-527.5 -212t-527.5 212t-210 533.5zM369 716.5q0 -227.5 131 -361.5t331.5 -134t331.5 134t131 361.5t-131 361.5t-331.5 134t-331.5 -134t-131 -361.5zM508 1544l231 322h185l231 -322h-203 l-121 123l-120 -123h-203z" />
<glyph unicode="&#xd5;" horiz-adv-x="1662" d="M94 716.5q0 321.5 210 533.5t527.5 212t527.5 -212t210 -533.5t-210 -533.5t-527.5 -212t-527.5 212t-210 533.5zM369 716.5q0 -227.5 131 -361.5t331.5 -134t331.5 134t131 361.5t-131 361.5t-331.5 134t-331.5 -134t-131 -361.5zM469 1659q0 88 61.5 137t139.5 49 q63 0 114.5 -21.5t78 -46t57 -46t61.5 -21.5q20 0 33.5 12.5t13.5 32.5q0 25 -14 53l151 31q29 -43 29 -108q0 -88 -61.5 -137.5t-139.5 -49.5q-63 0 -114.5 21.5t-78 46t-57 46t-61.5 21.5q-20 0 -33.5 -12t-13.5 -33q0 -25 14 -53l-151 -31q-29 43 -29 109z" />
<glyph unicode="&#xd6;" horiz-adv-x="1662" d="M94 716.5q0 321.5 210 533.5t527.5 212t527.5 -212t210 -533.5t-210 -533.5t-527.5 -212t-527.5 212t-210 533.5zM369 716.5q0 -227.5 131 -361.5t331.5 -134t331.5 134t131 361.5t-131 361.5t-331.5 134t-331.5 -134t-131 -361.5zM526 1597v254h242v-254h-242zM895 1597 v254h242v-254h-242z" />
<glyph unicode="&#xd7;" horiz-adv-x="1138" d="M145 471l277 277l-277 276l148 147l276 -276l277 276l147 -147l-276 -276l276 -277l-147 -147l-277 276l-276 -276z" />
<glyph unicode="&#xd8;" horiz-adv-x="1662" d="M94 717q0 322 210 533.5t527 211.5q121 0 242 -37l72 136l201 -115l-66 -127q135 -102 212 -258t77 -344q0 -322 -210 -534t-528 -212q-121 0 -241 37l-72 -135l-201 115l66 127q-135 102 -212 257.5t-77 344.5zM369 717q0 -231 137 -369l448 850q-55 14 -123 14 q-201 0 -331.5 -134t-130.5 -361zM709 236q54 -15 122 -15q201 0 332 134t131 362q0 231 -137 368z" />
<glyph unicode="&#xd9;" horiz-adv-x="1433" d="M129 543v891h270v-865q0 -166 85 -257t232.5 -91t232.5 91t85 257v865h271v-891q0 -268 -164 -420t-424 -152t-424 151.5t-164 420.5zM430 1868h313l140 -324h-199z" />
<glyph unicode="&#xda;" horiz-adv-x="1433" d="M129 543v891h270v-865q0 -166 85 -257t232.5 -91t232.5 91t85 257v865h271v-891q0 -268 -164 -420t-424 -152t-424 151.5t-164 420.5zM553 1544l139 324h314l-254 -324h-199z" />
<glyph unicode="&#xdb;" horiz-adv-x="1433" d="M129 543v891h270v-865q0 -166 85 -257t232.5 -91t232.5 91t85 257v865h271v-891q0 -268 -164 -420t-424 -152t-424 151.5t-164 420.5zM393 1544l232 322h184l231 -322h-202l-121 123l-121 -123h-203z" />
<glyph unicode="&#xdc;" horiz-adv-x="1433" d="M129 543v891h270v-865q0 -166 85 -257t232.5 -91t232.5 91t85 257v865h271v-891q0 -268 -164 -420t-424 -152t-424 151.5t-164 420.5zM412 1597v254h241v-254h-241zM780 1597v254h242v-254h-242z" />
<glyph unicode="&#xdd;" horiz-adv-x="1232" d="M8 1434h297l266 -510q27 -55 45 -105l46 105l266 510h297l-473 -873v-561h-271v561zM432 1544l139 324h314l-254 -324h-199z" />
<glyph unicode="&#xde;" horiz-adv-x="1429" d="M150 0v1434h270v-250h381q248 0 392 -122t144 -345t-144 -345t-392 -122h-381v-250h-270zM420 492h373q137 0 205.5 60t68.5 164.5t-68.5 165t-205.5 60.5h-373v-450z" />
<glyph unicode="&#xdf;" horiz-adv-x="1232" d="M43 807v209h115v14q0 207 133 319.5t325 112.5q195 0 310.5 -94t115.5 -246q0 -219 -206 -319q313 -121 313 -428q0 -180 -110.5 -292t-288.5 -112q-180 0 -297 92l112 201q68 -68 158 -67q70 0 119 49t49 143q0 127 -93 203t-231 76h-63v225h71q96 0 156 50t60 138 q0 72 -48.5 114t-132.5 42q-82 0 -138 -56.5t-56 -162.5v-1018h-258v807h-115z" />
<glyph unicode="&#xe0;" horiz-adv-x="1161" d="M88 289q0 145 101.5 228t261.5 108l305 47v39q0 154 -187 153q-86 0 -134 -32.5t-48 -81.5q0 -12 4 -25l-231 -78q-18 41 -19 86q0 125 117 218t311 93q217 0 331 -92t114 -276v-424q-1 -154 67 -252h-262q-49 61 -49 162q-106 -190 -340 -191q-152 0 -247 87t-95 231z M272 1454h314l139 -324h-199zM340 303q0 -59 41 -91t111 -32q117 0 190.5 77t73.5 218v19l-246 -41q-170 -29 -170 -150z" />
<glyph unicode="&#xe1;" horiz-adv-x="1161" d="M88 289q0 145 101.5 228t261.5 108l305 47v39q0 154 -187 153q-86 0 -134 -32.5t-48 -81.5q0 -12 4 -25l-231 -78q-18 41 -19 86q0 125 117 218t311 93q217 0 331 -92t114 -276v-424q-1 -154 67 -252h-262q-49 61 -49 162q-106 -190 -340 -191q-152 0 -247 87t-95 231z M340 303q0 -59 41 -91t111 -32q117 0 190.5 77t73.5 218v19l-246 -41q-170 -29 -170 -150zM416 1130l139 324h313l-254 -324h-198z" />
<glyph unicode="&#xe2;" horiz-adv-x="1161" d="M88 289q0 145 101.5 228t261.5 108l305 47v39q0 154 -187 153q-86 0 -134 -32.5t-48 -81.5q0 -12 4 -25l-231 -78q-18 41 -19 86q0 125 117 218t311 93q217 0 331 -92t114 -276v-424q-1 -154 67 -252h-262q-49 61 -49 162q-106 -190 -340 -191q-152 0 -247 87t-95 231z M256 1133l231 321h185l231 -321h-203l-120 122l-121 -122h-203zM340 303q0 -59 41 -91t111 -32q117 0 190.5 77t73.5 218v19l-246 -41q-170 -29 -170 -150z" />
<glyph unicode="&#xe3;" horiz-adv-x="1161" d="M88 289q0 145 101.5 228t261.5 108l305 47v39q0 154 -187 153q-86 0 -134 -32.5t-48 -81.5q0 -12 4 -25l-231 -78q-18 41 -19 86q0 125 117 218t311 93q217 0 331 -92t114 -276v-424q-1 -154 67 -252h-262q-49 61 -49 162q-106 -190 -340 -191q-152 0 -247 87t-95 231z M205 1247q0 88 61.5 137.5t139.5 49.5q63 0 114 -21.5t78 -46.5t58.5 -46.5t60.5 -21.5q20 0 33.5 12.5t13.5 32.5q0 25 -14 54l151 30q29 -43 29 -108q0 -88 -61.5 -137t-139.5 -49q-66 0 -116 21.5t-76.5 46t-58 46t-60.5 21.5q-20 0 -33.5 -12.5t-13.5 -32.5 q0 -25 14 -54l-152 -30q-29 43 -28 108zM340 303q0 -59 41 -91t111 -32q117 0 190.5 77t73.5 218v19l-246 -41q-170 -29 -170 -150z" />
<glyph unicode="&#xe4;" horiz-adv-x="1161" d="M88 289q0 145 101.5 228t261.5 108l305 47v39q0 154 -187 153q-86 0 -134 -32.5t-48 -81.5q0 -12 4 -25l-231 -78q-18 41 -19 86q0 125 117 218t311 93q217 0 331 -92t114 -276v-424q-1 -154 67 -252h-262q-49 61 -49 162q-106 -190 -340 -191q-152 0 -247 87t-95 231z M274 1186v254h242v-254h-242zM340 303q0 -59 41 -91t111 -32q117 0 190.5 77t73.5 218v19l-246 -41q-170 -29 -170 -150zM643 1186v254h242v-254h-242z" />
<glyph unicode="&#xe5;" horiz-adv-x="1161" d="M88 289q0 145 101.5 228t261.5 108l305 47v39q0 154 -187 153q-86 0 -134 -32.5t-48 -81.5q0 -12 4 -25l-231 -78q-18 41 -19 86q0 125 117 218t311 93q217 0 331 -92t114 -276v-424q-1 -154 67 -252h-262q-49 61 -49 162q-106 -190 -340 -191q-152 0 -247 87t-95 231z M340 303q0 -59 41 -91t111 -32q117 0 190.5 77t73.5 218v19l-246 -41q-170 -29 -170 -150zM383 1300.5q0 81.5 57.5 138t139.5 56.5t139 -56.5t57 -138t-57 -138t-139 -56.5t-139.5 56.5t-57.5 138zM512 1300.5q0 -32.5 18.5 -51t49 -18.5t49 18.5t18.5 51t-18.5 51 t-49 18.5t-49 -18.5t-18.5 -51z" />
<glyph unicode="&#xe6;" horiz-adv-x="1873" d="M88 289q0 160 126 253t345 93h199v27q0 104 -39 153t-148 49q-88 0 -135 -32.5t-47 -81.5q0 -12 4 -25l-231 -78q-18 41 -19 86q0 125 111 218t295 93q268 0 379 -145q152 145 375 145q217 0 356 -142t139 -365v-91h-782q12 -117 88 -185t190 -68q188 0 281 186l192 -111 q-143 -297 -477 -297q-133 0 -246.5 61.5t-185.5 170.5q-57 -117 -164.5 -174.5t-228.5 -57.5q-168 0 -272.5 87t-104.5 231zM340 299q0 -55 40.5 -87t108.5 -32q113 0 191 71t78 185v10h-215q-96 0 -149.5 -42t-53.5 -105zM1016 635h545q-18 100 -88 156.5t-179 56.5 q-100 0 -175 -60.5t-103 -152.5z" />
<glyph unicode="&#xe7;" horiz-adv-x="1146" d="M72 508q0 238 155.5 387t378.5 149q168 0 290 -72.5t175 -203.5l-211 -139q-80 174 -256 174q-117 0 -193.5 -81t-76.5 -214q0 -135 75.5 -215t194.5 -80q98 0 160.5 46t107.5 140l209 -135q-145 -289 -473 -293l-49 -84q35 18 82 19q72 0 116 -45t44 -115 q0 -78 -56.5 -123t-138.5 -45q-160 0 -192 125l135 35q8 -45 57 -45q51 0 51 51q0 59 -57 59q-49 1 -92 -36l-76 67l51 150q-184 37 -297.5 178t-113.5 346z" />
<glyph unicode="&#xe8;" horiz-adv-x="1177" d="M72 508q0 238 154.5 387t379.5 149q217 0 356.5 -142t139.5 -365v-91h-783q12 -117 88 -185t191 -68q188 0 281 186l192 -111q-143 -297 -477 -297q-217 0 -369.5 150.5t-152.5 386.5zM301 1450h313l140 -324h-199zM319 635h545q-18 100 -87.5 156.5t-178.5 56.5 q-100 0 -175 -60.5t-104 -152.5z" />
<glyph unicode="&#xe9;" horiz-adv-x="1177" d="M72 508q0 238 154.5 387t379.5 149q217 0 356.5 -142t139.5 -365v-91h-783q12 -117 88 -185t191 -68q188 0 281 186l192 -111q-143 -297 -477 -297q-217 0 -369.5 150.5t-152.5 386.5zM319 635h545q-18 100 -87.5 156.5t-178.5 56.5q-100 0 -175 -60.5t-104 -152.5z M424 1126l139 324h314l-254 -324h-199z" />
<glyph unicode="&#xea;" horiz-adv-x="1177" d="M72 508q0 238 154.5 387t379.5 149q217 0 356.5 -142t139.5 -365v-91h-783q12 -117 88 -185t191 -68q188 0 281 186l192 -111q-143 -297 -477 -297q-217 0 -369.5 150.5t-152.5 386.5zM264 1126l232 322h184l231 -322h-202l-121 123l-121 -123h-203zM319 635h545 q-18 100 -87.5 156.5t-178.5 56.5q-100 0 -175 -60.5t-104 -152.5z" />
<glyph unicode="&#xeb;" horiz-adv-x="1177" d="M72 508q0 238 154.5 387t379.5 149q217 0 356.5 -142t139.5 -365v-91h-783q12 -117 88 -185t191 -68q188 0 281 186l192 -111q-143 -297 -477 -297q-217 0 -369.5 150.5t-152.5 386.5zM283 1180v254h241v-254h-241zM319 635h545q-18 100 -87.5 156.5t-178.5 56.5 q-100 0 -175 -60.5t-104 -152.5zM651 1180v254h242v-254h-242z" />
<glyph unicode="&#xec;" horiz-adv-x="512" d="M-68 1450h314l139 -324h-199zM127 0v1016h258v-1016h-258z" />
<glyph unicode="&#xed;" horiz-adv-x="512" d="M127 0v1016h258v-1016h-258zM127 1126l139 324h314l-254 -324h-199z" />
<glyph unicode="&#xee;" horiz-adv-x="512" d="M-68 1126l232 322h184l232 -322h-203l-121 123l-121 -123h-203zM127 0v1016h258v-1016h-258z" />
<glyph unicode="&#xef;" horiz-adv-x="512" d="M-49 1180v254h242v-254h-242zM127 0v1016h258v-1016h-258zM319 1180v254h242v-254h-242z" />
<glyph unicode="&#xf0;" horiz-adv-x="1208" d="M84 465q0 211 142.5 346t346.5 135q188 0 285 -108q-57 145 -180 260l-213 -82l-64 170l109 41q-106 70 -219 116l119 193q201 -90 350 -211l217 84l65 -170l-137 -53q219 -260 219 -606q0 -281 -138 -445t-386 -164q-229 0 -372.5 138.5t-143.5 355.5zM338 459 q0 -123 79 -197t189.5 -74t189 74t78.5 197t-78.5 196.5t-189 73.5t-189.5 -73.5t-79 -196.5z" />
<glyph unicode="&#xf1;" d="M129 0v1016h258v-164q125 193 344 192q162 0 259 -96t97 -256v-692h-258v586q0 217 -206 217q-102 0 -169 -80t-67 -207v-516h-258zM246 1241q0 88 61.5 137t138.5 49q66 0 116 -21.5t77 -46t58.5 -46t60.5 -21.5q20 0 33.5 12.5t13.5 32.5q0 25 -14 54l151 30 q29 -43 29 -108q0 -88 -61.5 -137.5t-139.5 -49.5q-66 0 -116 21.5t-76.5 46.5t-58 46.5t-60.5 21.5q-20 0 -33.5 -12.5t-13.5 -32.5q0 -25 14 -54l-152 -30q-29 43 -28 108z" />
<glyph unicode="&#xf2;" horiz-adv-x="1253" d="M72 508q0 252 164.5 394t390 142t390.5 -142t165 -394t-165 -394.5t-390.5 -142.5t-390 142.5t-164.5 394.5zM295 1450h313l140 -324h-199zM334 508q0 -133 87 -214t205.5 -81t206 81t87.5 214t-87.5 214t-206 81t-205.5 -81t-87 -214z" />
<glyph unicode="&#xf3;" horiz-adv-x="1253" d="M72 508q0 252 164.5 394t390 142t390.5 -142t165 -394t-165 -394.5t-390.5 -142.5t-390 142.5t-164.5 394.5zM334 508q0 -133 87 -214t205.5 -81t206 81t87.5 214t-87.5 214t-206 81t-205.5 -81t-87 -214zM508 1126l139 324h314l-254 -324h-199z" />
<glyph unicode="&#xf4;" horiz-adv-x="1253" d="M72 508q0 252 164.5 394t390 142t390.5 -142t165 -394t-165 -394.5t-390.5 -142.5t-390 142.5t-164.5 394.5zM303 1126l232 322h184l231 -322h-202l-121 123l-121 -123h-203zM334 508q0 -133 87 -214t205.5 -81t206 81t87.5 214t-87.5 214t-206 81t-205.5 -81t-87 -214z " />
<glyph unicode="&#xf5;" horiz-adv-x="1253" d="M72 508q0 252 164.5 394t390 142t390.5 -142t165 -394t-165 -394.5t-390.5 -142.5t-390 142.5t-164.5 394.5zM264 1241q0 88 61.5 137t139.5 49q63 0 114.5 -21.5t78 -46t57 -46t61.5 -21.5q20 0 33.5 12.5t13.5 32.5q0 25 -14 54l152 30q29 -43 28 -108 q0 -88 -61.5 -137.5t-139.5 -49.5q-63 0 -114 21.5t-78 46.5t-58.5 46.5t-60.5 21.5q-20 0 -33.5 -12.5t-13.5 -32.5q0 -25 14 -54l-151 -30q-29 43 -29 108zM334 508q0 -133 87 -214t205.5 -81t206 81t87.5 214t-87.5 214t-206 81t-205.5 -81t-87 -214z" />
<glyph unicode="&#xf6;" horiz-adv-x="1253" d="M72 508q0 252 164.5 394t390 142t390.5 -142t165 -394t-165 -394.5t-390.5 -142.5t-390 142.5t-164.5 394.5zM322 1180v254h241v-254h-241zM334 508q0 -133 87 -214t205.5 -81t206 81t87.5 214t-87.5 214t-206 81t-205.5 -81t-87 -214zM690 1180v254h242v-254h-242z" />
<glyph unicode="&#xf7;" horiz-adv-x="1177" d="M92 391v209h991v-209h-991zM451 0v274h274v-274h-274zM451 717v274h274v-274h-274z" />
<glyph unicode="&#xf8;" horiz-adv-x="1253" d="M72 508q0 252 164.5 394t390.5 142q92 0 184 -26l49 84l170 -105l-43 -71q195 -148 195 -418q0 -252 -165 -394.5t-390 -142.5q-92 0 -185 27l-49 -84l-170 104l43 72q-195 147 -194 418zM334 508q0 -115 65 -191l283 482q-37 4 -55 4q-119 0 -206 -81t-87 -214zM571 217 q38 -4 56 -4q119 0 206 81t87 214q0 115 -66 190z" />
<glyph unicode="&#xf9;" d="M129 385v631h258v-572q0 -231 207 -231q106 0 170.5 78t64.5 201v524h258v-1016h-258v160q-102 -188 -323 -189q-166 0 -271.5 108.5t-105.5 305.5zM322 1450h313l139 -324h-199z" />
<glyph unicode="&#xfa;" d="M129 385v631h258v-572q0 -231 207 -231q106 0 170.5 78t64.5 201v524h258v-1016h-258v160q-102 -188 -323 -189q-166 0 -271.5 108.5t-105.5 305.5zM444 1126l140 324h313l-254 -324h-199z" />
<glyph unicode="&#xfb;" d="M129 385v631h258v-572q0 -231 207 -231q106 0 170.5 78t64.5 201v524h258v-1016h-258v160q-102 -188 -323 -189q-166 0 -271.5 108.5t-105.5 305.5zM285 1126l231 322h184l232 -322h-203l-121 123l-121 -123h-202z" />
<glyph unicode="&#xfc;" d="M129 385v631h258v-572q0 -231 207 -231q106 0 170.5 78t64.5 201v524h258v-1016h-258v160q-102 -188 -323 -189q-166 0 -271.5 108.5t-105.5 305.5zM303 1180v254h242v-254h-242zM672 1180v254h241v-254h-241z" />
<glyph unicode="&#xfd;" horiz-adv-x="1118" d="M10 1016h293l262 -660l250 660h293l-483 -1200q-53 -131 -134 -189.5t-202 -58.5q-85 -1 -142 22l41 240q45 -25 93 -25q80 0 114 97l33 90zM395 1126l140 324h313l-254 -324h-199z" />
<glyph unicode="&#xfe;" horiz-adv-x="1277" d="M129 -418v1852h258v-564q53 76 149.5 125t208.5 49q193 0 327 -146t134 -390q0 -240 -139 -388.5t-346 -148.5q-211 0 -334 154v-543h-258zM371 508q0 -125 82 -210t204.5 -85t204.5 85t82 210t-82 210t-204.5 85t-204.5 -85t-82 -210z" />
<glyph unicode="&#xff;" horiz-adv-x="1118" d="M10 1016h293l262 -660l250 660h293l-483 -1200q-53 -131 -134 -189.5t-202 -58.5q-85 -1 -142 22l41 240q45 -25 93 -25q80 0 114 97l33 90zM254 1180v254h242v-254h-242zM623 1180v254h241v-254h-241z" />
<glyph unicode="&#x152;" horiz-adv-x="2404" d="M94 716.5q0 321.5 210 533.5t527 212q297 0 463 -190v162h990v-242h-719v-330h661v-241h-661v-379h725v-242h-996v178q-182 -207 -463 -207q-317 0 -527 212t-210 533.5zM369 716.5q0 -227.5 130.5 -361.5t331.5 -134q199 0 331 137.5t132 358.5q0 227 -131 361 t-331.5 134t-331.5 -134t-131 -361.5z" />
<glyph unicode="&#x153;" horiz-adv-x="2045" d="M72 508q0 252 164.5 394t390.5 142q123 0 236.5 -49t193.5 -139q162 188 411 188q217 0 356.5 -142t139.5 -365v-91h-782q12 -117 88 -185t190 -68q186 0 281 186l192 -111q-143 -297 -477 -297q-244 0 -399 185q-78 -88 -192.5 -136.5t-237.5 -48.5q-225 0 -390 142.5 t-165 394.5zM334 508q0 -133 87 -214t205.5 -81t206 81t87.5 214t-87.5 214t-206 81t-205.5 -81t-87 -214zM1182 635h544q-18 100 -87.5 156.5t-178.5 56.5q-100 0 -175 -60.5t-103 -152.5z" />
<glyph unicode="&#x178;" horiz-adv-x="1232" d="M8 1434l473 -873v-561h271v561l473 873h-297l-266 -510q-27 -55 -46 -105l-45 105l-266 510h-297zM311 1597v254h242v-254h-242zM680 1597v254h242v-254h-242z" />
<glyph unicode="&#x2c6;" horiz-adv-x="835" d="M94 1126l232 322h184l231 -322h-202l-121 123l-121 -123h-203z" />
<glyph unicode="&#x2dc;" horiz-adv-x="962" d="M119 1241q0 88 61.5 137t138.5 49q66 0 116 -21.5t77 -46t58.5 -46t60.5 -21.5q20 0 33.5 12.5t13.5 32.5q0 25 -14 54l151 30q29 -43 29 -108q0 -88 -61.5 -137.5t-139.5 -49.5q-66 0 -116 21.5t-76.5 46.5t-58 46.5t-60.5 21.5q-20 0 -33.5 -12.5t-13.5 -32.5 q0 -25 14 -54l-152 -30q-29 43 -28 108z" />
<glyph unicode="&#x2000;" horiz-adv-x="956" />
<glyph unicode="&#x2001;" horiz-adv-x="1913" />
<glyph unicode="&#x2002;" horiz-adv-x="956" />
<glyph unicode="&#x2003;" horiz-adv-x="1913" />
<glyph unicode="&#x2004;" horiz-adv-x="637" />
<glyph unicode="&#x2005;" horiz-adv-x="478" />
<glyph unicode="&#x2006;" horiz-adv-x="318" />
<glyph unicode="&#x2007;" horiz-adv-x="318" />
<glyph unicode="&#x2008;" horiz-adv-x="239" />
<glyph unicode="&#x2009;" horiz-adv-x="382" />
<glyph unicode="&#x200a;" horiz-adv-x="106" />
<glyph unicode="&#x2010;" horiz-adv-x="958" d="M82 532v209h795v-209h-795z" />
<glyph unicode="&#x2011;" horiz-adv-x="958" d="M82 532v209h795v-209h-795z" />
<glyph unicode="&#x2012;" horiz-adv-x="958" d="M82 532v209h795v-209h-795z" />
<glyph unicode="&#x2013;" horiz-adv-x="1183" d="M82 532v209h1020v-209h-1020z" />
<glyph unicode="&#x2014;" horiz-adv-x="1736" d="M82 532v209h1573v-209h-1573z" />
<glyph unicode="&#x2018;" horiz-adv-x="438" d="M76 858v275l252 315l53 -37l-139 -278h108v-275h-274z" />
<glyph unicode="&#x2019;" horiz-adv-x="438" d="M57 881l140 278h-109v275h274v-275l-251 -315z" />
<glyph unicode="&#x201a;" horiz-adv-x="438" d="M57 -279l140 279h-109v274h274v-274l-251 -315z" />
<glyph unicode="&#x201c;" horiz-adv-x="782" d="M76 858v275l252 315l53 -37l-139 -278h108v-275h-274zM420 858v275l252 315l53 -37l-139 -278h108v-275h-274z" />
<glyph unicode="&#x201d;" horiz-adv-x="782" d="M57 881l140 278h-109v275h274v-275l-251 -315zM401 881l140 278h-109v275h275v-275l-252 -315z" />
<glyph unicode="&#x201e;" horiz-adv-x="782" d="M57 -279l140 279h-109v274h274v-274l-251 -315zM401 -279l140 279h-109v274h275v-274l-252 -315z" />
<glyph unicode="&#x2022;" horiz-adv-x="667" d="M88 563.5q0 102.5 71.5 174t174 71.5t174.5 -71.5t72 -174t-72 -174.5t-174.5 -72t-174 72t-71.5 174.5z" />
<glyph unicode="&#x2026;" d="M82 0v274h274v-274h-274zM471 0v274h274v-274h-274zM860 0v274h275v-274h-275z" />
<glyph unicode="&#x202f;" horiz-adv-x="382" />
<glyph unicode="&#x2039;" horiz-adv-x="774" d="M82 563l342 438h289l-340 -438l340 -434h-289z" />
<glyph unicode="&#x203a;" horiz-adv-x="774" d="M61 129l340 434l-340 438h289l342 -438l-342 -434h-289z" />
<glyph unicode="&#x205f;" horiz-adv-x="478" />
<glyph unicode="&#x20ac;" horiz-adv-x="1613" d="M72 469l86 188h61q-2 18 -2 60q0 39 2 59h-147l86 189h94q68 227 244 362t403 135q467 0 614 -411l-243 -109q-90 270 -379 270q-129 0 -225.5 -64.5t-143.5 -182.5h570l-86 -189h-521q-2 -20 -2 -59q0 -10 1 -30.5t1 -29.5h607l-86 -188h-484q49 -117 146.5 -182.5 t224.5 -65.5q289 0 389 299l238 -86q-158 -463 -627 -463q-242 0 -411 132.5t-230 365.5h-180z" />
<glyph unicode="&#x2122;" horiz-adv-x="1761" d="M66 1282v152h655v-152h-244v-668h-168v668h-243zM801 614v820h186l248 -619l248 619h186v-820h-168v459l-184 -459h-164l-184 459v-459h-168z" />
<glyph unicode="&#x25fc;" horiz-adv-x="1013" d="M0 0v1014h1014v-1014h-1014z" />
</font>
</defs>
</svg>
